<?xml version="1.0" encoding="iso-8859-1"?>
<!-- Uploaded to: SVG Repo, www.svgrepo.com, Generator: SVG Repo Mixer Tools -->
<svg fill="#000000" height="50px" width="50px" version="1.1" id="Layer_1" xmlns="http://www.w3.org/2000/svg" xmlns:xlink="http://www.w3.org/1999/xlink" 
	 viewBox="0 0 511.999 511.999" xml:space="preserve">
<g>
	<g>
		<path d="M234.787,18.641c-11.94-0.997-22.451,7.907-23.448,19.844c-0.994,11.931,7.905,22.45,19.844,23.448
			c0.61,0.052,1.215,0.076,1.816,0.076c11.165,0,20.686-8.592,21.631-19.914v-0.006C255.624,30.156,246.724,19.637,234.787,18.641z"
			/>
	</g>
</g>
<g>
	<g>
		<path d="M180.568,4.264c-11.932-0.999-22.456,7.902-23.454,19.843c-0.481,5.78,1.317,11.403,5.063,15.831
			c3.75,4.431,8.998,7.136,14.776,7.617c0.612,0.052,1.22,0.077,1.824,0.077c11.165,0,20.685-8.592,21.63-19.915v-0.005
			C201.4,15.779,192.502,5.261,180.568,4.264z"/>
	</g>
</g>
<g>
	<g>
		<path d="M419.518,464.592l-30.802,2.111l-9.419-137.389c17.735-4.813,33.694-14.774,46.095-29.001
			c16.531-18.965,24.693-43.154,22.982-68.111L438.245,84.453c-0.968-14.125-13.252-24.836-27.371-23.859l-136.266,9.341
			c-6.834,0.469-13.082,3.577-17.592,8.751c-0.713,0.819-1.348,1.684-1.945,2.569c-4.177-3.845-9.458-6.202-15.195-6.681
			L103.762,63.221c-14.12-1.171-26.542,9.344-27.72,23.451l-6.543,78.436c-0.002,0.042-0.007,0.082-0.01,0.124l-5.758,69.023
			c-2.079,24.93,5.724,49.237,21.974,68.444c12.19,14.409,27.999,24.606,45.662,29.679l-11.449,137.235l-30.766-2.566
			c-10.145-0.844-19.033,6.684-19.877,16.816c-0.844,10.133,6.684,19.032,16.816,19.877l98.226,8.194
			c0.52,0.043,1.038,0.065,1.551,0.065c9.475,0,17.524-7.27,18.327-16.881c0.844-10.133-6.684-19.031-16.816-19.877l-30.766-2.566
			l11.449-137.256c18.257-2.078,35.538-9.494,49.945-21.681c19.207-16.249,30.931-38.928,33.011-63.857l5.594-67.068l4.268,62.245
			c3.113,45.409,38.167,81.129,81.682,86.749l9.421,137.417l-30.801,2.111c-10.144,0.695-17.803,9.483-17.108,19.627
			c0.665,9.716,8.755,17.152,18.349,17.152c0.423,0,0.849-0.015,1.278-0.044l98.336-6.742c10.144-0.695,17.803-9.483,17.108-19.627
			C438.45,471.556,429.659,463.901,419.518,464.592z M221.028,166.427c-19.94-6.503-41.325-8.525-62.13-5.84
			c-17.333,2.236-35.106,0.074-51.396-6.255l-0.151-0.059l4.457-53.432l113.899,9.5L221.028,166.427z M343.824,157.853
			c-16.797,4.83-34.691,5.376-51.753,1.582l-0.157-0.036l-3.667-53.492l114.027-7.817l3.849,56.148
			C385.429,150.823,363.981,152.056,343.824,157.853z"/>
	</g>
</g>
<g>
	<g>
		<path d="M420.553,26.259C419.736,14.31,409.357,5.263,397.396,6.07c-11.946,0.82-21,11.206-20.183,23.158
			c0.396,5.787,3.024,11.075,7.399,14.887c3.99,3.477,8.998,5.348,14.236,5.348c0.503,0,1.01-0.017,1.517-0.052
			c5.791-0.396,11.079-3.023,14.893-7.399C419.068,37.639,420.949,32.045,420.553,26.259z"/>
	</g>
</g>
<g>
	<g>
		<path d="M364.78,20.24v-0.006c-0.82-11.946-11.21-20.997-23.158-20.183c-5.788,0.398-11.076,3.025-14.888,7.4
			c-3.811,4.373-5.693,9.971-5.295,15.752c0.395,5.789,3.023,11.079,7.397,14.893c3.99,3.477,8.998,5.348,14.236,5.348
			c0.503,0,1.01-0.017,1.517-0.052C356.538,42.574,365.596,32.189,364.78,20.24z"/>
	</g>
</g>
</svg>